# xmcd
#
# Track frame offsets:
# 180
# 17997
# 51499
# 86857
# 126062
# 170154
# 188153
# 210185
# 246493
#
# Disc length: 3588 seconds
#
#
# Revision: 0
# Processed by: cddbd v1.4PL0 Copyright (c) Steve Scherf et al.
# Submitted via: FreeRIP 2.00 
#
DISCID=820e0209
DTITLE=Bill Brown and the Kingbees - Not Just The Blues
DYEAR=1900
DGENRE=Blues
TTITLE0=Teeny Little Bit
TTITLE1=Unchain My Heart
TTITLE2=Flip Flop Fly
TTITLE3=Going Up - Going Down
TTITLE4=Mustang Sally
TTITLE5=Shotgun
TTITLE6=Safe Sex
TTITLE7=Road House
TTITLE8=Born In Ohio
EXTD=
EXTT0=
EXTT1=
EXTT2=
EXTT3=
EXTT4=
EXTT5=
EXTT6=
EXTT7=
EXTT8=
PLAYORDER=
